PathFileType	4	(X/Y/Z)	C:/Users/beibeiliu/ov580/test_trc/User3\sequence.18_training_dense_right.trc
DataRate	CameraRate	NumFrames	NumMarkers	Units	OrigDataRate	OrigDataStartFrame	OrigNumFrames
120	120	20	19	mm	120	57	84
Frame#	Time	ThumbCMC			ThumbMCP			ThumbIP			ThumbTip			IndexMCP			IndexPIP			IndexTip			MiddleMCP			MiddlePIP			MiddleTip			RingMCP			RingPIP			RingTip			PinkyMCP			PinkyPIP			PinkyTip			BackHand1			BackHand2			BackHand3	
		X0	Y0	Z0	X1	Y1	Z1	X2	Y2	Z2	X3	Y3	Z3	X4	Y4	Z4	X5	Y5	Z5	X6	Y6	Z6	X7	Y7	Z7	X8	Y8	Z8	X9	Y9	Z9	X10	Y10	Z10	X11	Y11	Z11	X12	Y12	Z12	X13	Y13	Z13	X14	Y14	Z14	X15	Y15	Z15	X16	Y16	Z16	X17	Y17	Z17	X18	Y18	Z18	
56	0.466667	146.783	-25.0015	-12.7639	131.224	1.79882	-36.6282	107.811	10.041	-53.7844	81.8206	6.09798	-55.9404	133.655	-48.8829	-84.357	137.627	-43.6181	-106.277	136.52	-40.9693	-132.911	106.046	-57.2778	-81.7624	97.4027	-52.1092	-105.965	89.6092	-44.2243	-136.207	88.8746	-33.5082	-64.8193	83.3341	-1.92001	-59.085	97.8336	-1.32724	-29.6732	77.2108	-29.4775	-48.4919	79.7439	-2.9437	-37.2693	96.936	-9.00481	-12.6578	102.335	-69.3656	-21.0741	110.527	-71.3575	8.56607	137.64	-63.7997	-16.8788	
57	0.475	161.901	-29.7895	-6.11016	146.161	-9.62026	-38.5634	123.106	-4.65952	-61.4013	102.289	-12.9831	-62.6349	165.231	-63.7058	-73.5506	168.226	-62.7537	-99.6333	169.428	-60.7639	-125.537	134.966	-76.7105	-76.2697	133.319	-75.8713	-105.666	127.204	-72.445	-133.13	111.07	-56.1118	-65.1339	104.123	-25.7664	-68.7137	116.658	-15.6587	-37.6972	95.1066	-49.5181	-52.9983	99.1261	-23.7808	-48.4486	112.519	-19.5964	-18.0116	128.577	-81.899	-15.7445	127.522	-79.6767	12.4408	157.523	-71.2316	-6.70313	
58	0.483333	167.672	-24.1112	-4.19159	149.409	-10.0341	-34.4462	131.151	-13.1138	-60.0205	111.531	-34.0486	-65.8271	188.874	-59.2959	-64.8453	198.311	-56.0318	-91.857	200.437	-55.8408	-115.02	169.575	-80.3273	-66.6483	168.478	-84.6723	-98.327	170.484	-82.5432	-129.568	141.855	-69.2573	-63.2397	119.9	-46.3978	-68.5977	122.574	-30.2347	-41.8966	119.13	-70.2978	-50.1679	110.667	-43.4191	-49.2433	117.062	-29.9819	-22.2109	153.052	-84.4617	-7.15057	151.044	-79.0966	24.3881	179.249	-62.0554	3.98762	
59	0.491667	160.577	-13.0269	-1.25465	141.791	-7.81178	-35.9905	131.426	-26.7607	-59.7128	122.328	-47.2952	-67.0143	202.53	-32.1391	-59.2034	208.282	-31.5667	-84.4987	212.798	-33.2107	-109.879	196.059	-63.4128	-64.0855	200.336	-66.9767	-91.0767	202.198	-68.4286	-118.876	162.802	-70.3211	-60.285	134.975	-58.0439	-68.9758	127.054	-43.0137	-40.872	144.196	-79.2184	-45.7654	123.176	-59.7	-48.2244	124.511	-41.8923	-25.9796	179.486	-71.8499	-6.69437	171.528	-67.4897	28.2114	188.996	-40.781	9.64793	
60	0.5	140.151	-0.506514	-0.566205	130.292	-10.9759	-34.9528	128.968	-27.1874	-62.3029	136.416	-52.6473	-72.1336	194.547	3.69652	-58.8412	198.259	12.3078	-85.1532	203.929	16.2474	-108.621	204.997	-21.1711	-56.5173	212.808	-20.0189	-84.4267	221.67	-26.5003	-118.536	180.218	-50.0973	-61.291	152.931	-54.6454	-67.9881	136.309	-46.3922	-39.4568	170.093	-67.8697	-44.3077	142.864	-57.1494	-48.1824	131.552	-49.5481	-24.1662	194.56	-41.7038	-2.55656	183.372	-42.0288	28.3833	182.893	-8.99917	7.86597	
61	0.508333	123.745	-2.17706	-5.67636	112.501	-13.536	-39.1705	124.019	-28.6161	-67.2955	144.008	-44.6593	-71.1591	165.253	28.4715	-54.7196	170.939	38.226	-83.0053	169.958	47.0636	-103.976	191.814	8.38403	-55.7697	199.548	18.7789	-84.9363	207.284	21.3042	-114.648	179.804	-22.4058	-61.1063	160.07	-40.7568	-72.5334	140.774	-44.5616	-43.5456	178.632	-43.0674	-49.7968	155.467	-53.8943	-50.748	137.237	-44.2396	-23.5529	188.242	-13.5544	-5.45551	178.792	-19.6184	25.3378	159.407	11.0775	7.1305	
62	0.516667	107.272	-7.41849	-8.05543	102.971	-21.4864	-41.9492	119.615	-32.5695	-71.0057	141.3	-43.1311	-76.1754	140.695	31.5125	-60.2606	139.755	41.6496	-84.311	135.68	53.5424	-109.344	171.854	26.0657	-64.2242	174.432	33.9364	-88.3676	184.514	38.555	-120.469	171.604	-11.8973	-63.5953	152.011	-35.6638	-75.7016	138.135	-40.8196	-43.2555	177.256	-32.5707	-51.6261	152.363	-48.0173	-53.4457	137.335	-42.8877	-27.2413	172.33	1.10122	-7.2237	168.204	-8.39261	23.4904	140.964	13.3304	1.01734	
63	0.525	95.191	-15.456	-14.7551	93.3136	-33.5035	-45.895	108.03	-46.4057	-71.846	136.997	-54.5273	-76.0026	121.282	21.0048	-72.7512	111.34	29.9269	-98.8838	113.715	33.0992	-124.15	152.044	17.7689	-73.5779	154.615	23.5298	-98.4857	163.759	27.545	-133.685	159.753	-14.962	-70.0837	149.058	-41.6642	-80.3162	134.338	-47.6194	-51.5693	166.901	-34.4683	-56.1745	147.402	-52.0308	-57.663	132.162	-52.0294	-30.0055	159.852	4.74801	-18.6625	154.373	-3.46672	15.6363	123.424	11.7659	-8.27728	
64	0.533333	84.4999	-24.3325	-13.7744	82.8718	-50.948	-47.6229	98.0302	-68.6486	-65.846	129.319	-70.6398	-67.2238	99.5959	0.103241	-83.9238	91.983	-2.0538	-114.376	91.9264	-5.00243	-137.673	131.188	-0.558696	-88.3156	138.003	-3.35519	-114.589	138.989	-5.80511	-145.923	145.503	-28.5785	-78.5751	138.025	-60.9757	-82.6177	123.151	-62.6183	-56.611	153.197	-45.5464	-60.8863	136.344	-67.4569	-54.9636	124.195	-62.7692	-28.1177	146.897	-2.00005	-30.989	143.45	-0.529261	3.32316	111.577	5.68745	-18.1097	
65	0.541667	72.1624	-35.87	-16.2878	75.2027	-68.3111	-36.2119	91.6711	-88.9989	-53.1575	119.626	-89.0847	-53.7582	82.0087	-31.2281	-89.772	77.099	-44.2689	-116.157	71.4356	-52.9641	-135.025	116.623	-31.1432	-98.7066	116.23	-41.2982	-120.168	114.73	-53.5755	-147.727	127.323	-51.9546	-83.4419	122.721	-81.6527	-80.6955	109.391	-79.4881	-49.7104	139.804	-63.2693	-61.3269	126.315	-83.3255	-46.0424	113.813	-71.1588	-26.0786	130.331	-11.6427	-39.5509	127.336	-2.91194	-8.32984	98.0079	-3.13767	-32.0596	
66	0.55	61.9362	-43.0785	-10.298	64.9225	-79.5814	-19.7114	83.8918	-104.446	-35.6848	110.51	-99.9082	-37.0996	66.1244	-59.8741	-85.5195	55.171	-74.1996	-101.363	48.8527	-92.9395	-121.846	96.4373	-57.9735	-91.3016	95.7781	-75.8941	-112.872	95.6473	-98.4129	-137.128	114.222	-75.8447	-77.3396	110.239	-103.528	-62.8524	99.4408	-94.417	-35.4392	128.475	-78.0483	-54.428	117.843	-95.6341	-38.0957	106.581	-76.3181	-13.9309	118.937	-25.006	-47.9424	118.582	-9.35339	-18.6771	84.2754	-14.5051	-32.6477	
67	0.558333	54.4648	-35.682	-2.86584	53.2445	-74.653	-5.66635	69.712	-101.015	-16.5718	93.8069	-105.741	-19.3901	52.4398	-67.0911	-73.8238	37.9462	-85.6641	-86.676	31.606	-105.652	-100.994	77.8677	-74.0554	-83.5746	77.2859	-93.5951	-97.7772	72.5402	-119.178	-114.077	99.506	-83.6241	-62.7367	91.6077	-111.059	-48.5096	85.1132	-96.5534	-18.8799	115.776	-87.4827	-41.7102	97.674	-98.7636	-20.2048	94.3102	-75.834	-3.70418	109.297	-31.4965	-43.6036	117.352	-10.1609	-19.9713	76.4097	-16.2105	-34.499	
68	0.566667	54.3068	-17.835	1.20437	41.7799	-52.3817	4.30744	43.5582	-87.8419	0.289595	69.3305	-99.8573	-4.94192	43.0499	-54.777	-64.0739	27.0996	-71.6622	-76.879	9.29489	-88.1962	-86.7215	67.2665	-72.8168	-74.3947	57.3101	-92.5386	-84.401	43.95	-118.805	-96.8461	81.1561	-85.9817	-50.6773	64.913	-104.281	-32.3108	62.9991	-82.1063	-4.19295	93.2402	-88.5847	-29.4536	78.3116	-92.5924	-9.64876	79.2309	-62.2261	3.90119	104.502	-33.2559	-39.1138	117.884	-15.3025	-20.3838	83.2972	-11.48	-32.6448	
69	0.575	62.0672	-0.511253	-0.415074	36.4255	-24.151	7.40898	26.8026	-58.5909	5.34632	42.5785	-77.2231	6.45173	34.0968	-32.3755	-62.6616	15.2218	-43.1467	-73.0297	-3.583	-54.6466	-82.6383	53.847	-56.4862	-65.7652	35.4611	-73.1837	-76.7704	16.426	-98.3484	-85.02	61.343	-72.0739	-40.631	38.7032	-81.8704	-22.2767	49.3004	-61.0383	4.79311	67.7935	-76.6698	-18.7816	57.8261	-74.8415	5.24834	70.3265	-48.7226	13.0514	102.878	-36.8859	-34.1137	120.06	-14.3023	-13.6032	89.6341	0.322644	-26.7656	
70	0.583333	76.2101	20.1809	2.43662	40.2469	6.10531	7.54793	16.6756	-18.0282	8.88447	24.2608	-45.6271	10.321	38.8698	-9.23174	-61.7051	17.7816	-8.58407	-72.7129	-6.18185	-11.9038	-85.4986	49.3074	-38.4085	-59.1537	25.984	-42.5749	-71.6981	-0.585753	-58.2843	-79.8915	45.4567	-47.3314	-33.7907	20.451	-47.307	-15.5875	35.4616	-25.9897	7.52165	48.9636	-53.807	-10.6806	41.7865	-39.9652	12.9792	61.6178	-23.2019	17.4163	96.9801	-34.4045	-25.5325	119.362	-21.7788	-7.6524	101.86	3.00195	-26.4743	
71	0.591667	92.0109	33.7535	2.71568	53.7311	38.8039	7.76594	26.1497	18.1757	8.18601	18.2607	-8.44217	12.3797	52.7232	17.534	-59.8458	29.4595	21.4649	-72.9493	13.003	28.9748	-85.0555	45.8644	-11.4567	-58.3719	24.969	-11.9869	-69.585	-8.04124	-12.897	-82.2863	37.5105	-19.0458	-28.2532	18.7159	-10.2878	-8.22837	43.7801	7.6331	11.8801	42.756	-26.8066	-3.81977	36.7537	-7.14245	13.5944	63.1701	-0.548086	21.3994	95.8925	-27.8132	-18.3681	121.153	-21.3656	3.06316	112.242	7.16861	-17.6109	
72	0.6	111.387	41.1781	4.92763	72.9846	58.5121	4.44787	41.6621	52.0805	4.89426	26.3038	31.1481	10.4262	68.7175	34.8347	-58.5225	48.6248	49.7737	-76.3141	32.2537	60.1684	-89.4063	50.5311	12.0747	-55.959	27.3042	17.6428	-68.9325	3.57582	29.0235	-82.2345	41.1351	10.4224	-27.3466	27.659	32.6375	-7.88618	54.356	32.4949	13.2284	42.1366	3.48434	-4.57828	46.0284	25.2837	15.146	74.1142	18.4047	24.7517	90.0572	-17.252	-15.4417	110.516	-21.8273	3.96162	115.828	10.3091	-19.7664	
73	0.608333	121.889	40.7624	-0.0457259	96.2418	71.4043	-0.468437	63.9484	72.9199	-1.61623	41.8733	60.3183	1.54222	86.2032	44.438	-64.8002	77.4859	63.2336	-82.5508	64.9561	75.0323	-97.5001	61.16	27.7464	-60.5077	43.2815	39.0676	-72.8802	21.7336	55.2266	-89.983	50.5595	31.7205	-31.5269	41.403	55.7215	-10.0464	69.1147	49.7693	8.79654	46.0541	25.4686	-7.32918	54.3236	44.3696	12.9523	82.5837	31.953	21.724	86.1986	-6.59722	-17.6364	106.599	-18.8143	6.59464	121.434	6.7812	-17.0521	
74	0.616667	134.935	29.3095	-2.80038	114.937	61.3303	-12.5516	88.4583	73.4125	-17.6874	62.9208	65.3684	-15.5121	108.111	33.3235	-73.0438	104.347	49.8851	-95.5881	95.035	61.258	-112.045	78.6276	23.4797	-70.7827	62.4286	36.5209	-88.1075	48.4307	51.268	-106.684	65.8485	33.0426	-42.5075	64.612	61.0832	-22.0796	84.4001	52.982	-1.81499	58.1127	31.0838	-20.2114	71.1858	51.113	-1.27623	93.6232	35.2472	9.88943	87.4029	-11.5882	-21.8138	104.894	-24.2141	6.51704	125.456	-5.39769	-21.6702	
75	0.625	149.169	11.4342	-6.2293	138.03	43.626	-22.3448	114.144	58.7985	-36.1831	83.1046	55.3932	-41.3219	133.9	5.36001	-80.5705	135.558	16.8085	-103.232	136.133	26.3716	-124.956	106.286	-2.7908	-77.9098	95.5425	9.55357	-104.204	83.2204	23.9688	-130.039	86.0975	20.1258	-57.2299	87.7828	46.1348	-46.832	103.627	39.7917	-16.533	75.515	16.6558	-36.7842	83.6136	40.3812	-23.3428	104.514	28.9062	-0.777697	99.1156	-27.6146	-24.61	109.37	-35.1108	7.09412	139.11	-26.3514	-19.5657	
